<?xml version="1.0" encoding="utf-8" standalone="no"?>
<!DOCTYPE svg PUBLIC "-//W3C//DTD SVG 1.1//EN"
  "http://www.w3.org/Graphics/SVG/1.1/DTD/svg11.dtd">
<svg xmlns:xlink="http://www.w3.org/1999/xlink" width="352.495625pt" height="351.674687pt" viewBox="0 0 352.495625 351.674687" xmlns="http://www.w3.org/2000/svg" version="1.1">
 <metadata>
  <rdf:RDF xmlns:dc="http://purl.org/dc/elements/1.1/" xmlns:cc="http://creativecommons.org/ns#" xmlns:rdf="http://www.w3.org/1999/02/22-rdf-syntax-ns#">
   <cc:Work>
    <dc:type rdf:resource="http://purl.org/dc/dcmitype/StillImage"/>
    <dc:date>2025-11-18T01:44:29.713075</dc:date>
    <dc:format>image/svg+xml</dc:format>
    <dc:creator>
     <cc:Agent>
      <dc:title>Matplotlib v3.10.0, https://matplotlib.org/</dc:title>
     </cc:Agent>
    </dc:creator>
   </cc:Work>
  </rdf:RDF>
 </metadata>
 <defs>
  <style type="text/css">*{stroke-linejoin: round; stroke-linecap: butt}</style>
 </defs>
 <g id="figure_1">
  <g id="patch_1">
   <path d="M 0 351.674687 
L 352.495625 351.674687 
L 352.495625 0 
L 0 0 
z
" style="fill: #ffffff"/>
  </g>
  <g id="axes_1">
   <g id="patch_2">
    <path d="M 46.965625 314.118437 
L 345.295625 314.118437 
L 345.295625 24.798437 
L 46.965625 24.798437 
z
" style="fill: #ffffff"/>
   </g>
   <g id="PathCollection_1">
    <defs>
     <path id="m732dbad29d" d="M 0 2.236068 
C 0.593012 2.236068 1.161816 2.000462 1.581139 1.581139 
C 2.000462 1.161816 2.236068 0.593012 2.236068 0 
C 2.236068 -0.593012 2.000462 -1.161816 1.581139 -1.581139 
C 1.161816 -2.000462 0.593012 -2.236068 0 -2.236068 
C -0.593012 -2.236068 -1.161816 -2.000462 -1.581139 -1.581139 
C -2.000462 -1.161816 -2.236068 -0.593012 -2.236068 0 
C -2.236068 0.593012 -2.000462 1.161816 -1.581139 1.581139 
C -1.161816 2.000462 -0.593012 2.236068 0 2.236068 
z
" style="stroke: #0000ff; stroke-width: 0.2"/>
    </defs>
    <g clip-path="url(#padeeb3d5cb)">
     <use xlink:href="#m732dbad29d" x="122.2836" y="240.219354" style="fill: #0000ff; stroke: #0000ff; stroke-width: 0.2"/>
     <use xlink:href="#m732dbad29d" x="177.738335" y="179.837199" style="fill: #0000ff; stroke: #0000ff; stroke-width: 0.2"/>
     <use xlink:href="#m732dbad29d" x="224.056475" y="150.011402" style="fill: #0000ff; stroke: #0000ff; stroke-width: 0.2"/>
     <use xlink:href="#m732dbad29d" x="208.079648" y="180.141319" style="fill: #0000ff; stroke: #0000ff; stroke-width: 0.2"/>
     <use xlink:href="#m732dbad29d" x="197.917018" y="173.919219" style="fill: #0000ff; stroke: #0000ff; stroke-width: 0.2"/>
     <use xlink:href="#m732dbad29d" x="60.52608" y="208.021142" style="fill: #0000ff; stroke: #0000ff; stroke-width: 0.2"/>
     <use xlink:href="#m732dbad29d" x="214.773303" y="146.945887" style="fill: #0000ff; stroke: #0000ff; stroke-width: 0.2"/>
     <use xlink:href="#m732dbad29d" x="131.566771" y="224.232317" style="fill: #0000ff; stroke: #0000ff; stroke-width: 0.2"/>
     <use xlink:href="#m732dbad29d" x="254.935235" y="126.510118" style="fill: #0000ff; stroke: #0000ff; stroke-width: 0.2"/>
     <use xlink:href="#m732dbad29d" x="217.313961" y="168.150957" style="fill: #0000ff; stroke: #0000ff; stroke-width: 0.2"/>
     <use xlink:href="#m732dbad29d" x="246.140651" y="112.559915" style="fill: #0000ff; stroke: #0000ff; stroke-width: 0.2"/>
     <use xlink:href="#m732dbad29d" x="221.711253" y="149.527036" style="fill: #0000ff; stroke: #0000ff; stroke-width: 0.2"/>
     <use xlink:href="#m732dbad29d" x="118.912343" y="237.384612" style="fill: #0000ff; stroke: #0000ff; stroke-width: 0.2"/>
     <use xlink:href="#m732dbad29d" x="292.556509" y="66.527086" style="fill: #0000ff; stroke: #0000ff; stroke-width: 0.2"/>
     <use xlink:href="#m732dbad29d" x="234.903128" y="138.077813" style="fill: #0000ff; stroke: #0000ff; stroke-width: 0.2"/>
     <use xlink:href="#m732dbad29d" x="223.567887" y="150.011402" style="fill: #0000ff; stroke: #0000ff; stroke-width: 0.2"/>
     <use xlink:href="#m732dbad29d" x="152.576054" y="213.964971" style="fill: #0000ff; stroke: #0000ff; stroke-width: 0.2"/>
     <use xlink:href="#m732dbad29d" x="230.994424" y="153.231445" style="fill: #0000ff; stroke: #0000ff; stroke-width: 0.2"/>
     <use xlink:href="#m732dbad29d" x="224.691639" y="135.721224" style="fill: #0000ff; stroke: #0000ff; stroke-width: 0.2"/>
     <use xlink:href="#m732dbad29d" x="139.237602" y="209.479169" style="fill: #0000ff; stroke: #0000ff; stroke-width: 0.2"/>
     <use xlink:href="#m732dbad29d" x="159.807156" y="196.887414" style="fill: #0000ff; stroke: #0000ff; stroke-width: 0.2"/>
     <use xlink:href="#m732dbad29d" x="195.81609" y="181.545487" style="fill: #0000ff; stroke: #0000ff; stroke-width: 0.2"/>
     <use xlink:href="#m732dbad29d" x="317.963084" y="37.949347" style="fill: #0000ff; stroke: #0000ff; stroke-width: 0.2"/>
     <use xlink:href="#m732dbad29d" x="268.12711" y="85.446773" style="fill: #0000ff; stroke: #0000ff; stroke-width: 0.2"/>
     <use xlink:href="#m732dbad29d" x="218.193419" y="157.226681" style="fill: #0000ff; stroke: #0000ff; stroke-width: 0.2"/>
     <use xlink:href="#m732dbad29d" x="255.423823" y="129.849129" style="fill: #0000ff; stroke: #0000ff; stroke-width: 0.2"/>
     <use xlink:href="#m732dbad29d" x="206.711602" y="169.243637" style="fill: #0000ff; stroke: #0000ff; stroke-width: 0.2"/>
     <use xlink:href="#m732dbad29d" x="252.492295" y="140.616368" style="fill: #0000ff; stroke: #0000ff; stroke-width: 0.2"/>
     <use xlink:href="#m732dbad29d" x="200.70197" y="160.056076" style="fill: #0000ff; stroke: #0000ff; stroke-width: 0.2"/>
     <use xlink:href="#m732dbad29d" x="186.337483" y="188.550736" style="fill: #0000ff; stroke: #0000ff; stroke-width: 0.2"/>
     <use xlink:href="#m732dbad29d" x="256.400999" y="109.15213" style="fill: #0000ff; stroke: #0000ff; stroke-width: 0.2"/>
     <use xlink:href="#m732dbad29d" x="251.515119" y="144.623583" style="fill: #0000ff; stroke: #0000ff; stroke-width: 0.2"/>
     <use xlink:href="#m732dbad29d" x="120.084954" y="248.691916" style="fill: #0000ff; stroke: #0000ff; stroke-width: 0.2"/>
     <use xlink:href="#m732dbad29d" x="102.495787" y="145.697981" style="fill: #0000ff; stroke: #0000ff; stroke-width: 0.2"/>
     <use xlink:href="#m732dbad29d" x="213.30754" y="135.721224" style="fill: #0000ff; stroke: #0000ff; stroke-width: 0.2"/>
     <use xlink:href="#m732dbad29d" x="300.862505" y="92.991632" style="fill: #0000ff; stroke: #0000ff; stroke-width: 0.2"/>
     <use xlink:href="#m732dbad29d" x="223.274734" y="135.721224" style="fill: #0000ff; stroke: #0000ff; stroke-width: 0.2"/>
     <use xlink:href="#m732dbad29d" x="212.428081" y="150.011402" style="fill: #0000ff; stroke: #0000ff; stroke-width: 0.2"/>
     <use xlink:href="#m732dbad29d" x="228.795778" y="135.721224" style="fill: #0000ff; stroke: #0000ff; stroke-width: 0.2"/>
     <use xlink:href="#m732dbad29d" x="182.770791" y="193.609259" style="fill: #0000ff; stroke: #0000ff; stroke-width: 0.2"/>
     <use xlink:href="#m732dbad29d" x="221.076088" y="187.912081" style="fill: #0000ff; stroke: #0000ff; stroke-width: 0.2"/>
     <use xlink:href="#m732dbad29d" x="194.545761" y="181.35857" style="fill: #0000ff; stroke: #0000ff; stroke-width: 0.2"/>
     <use xlink:href="#m732dbad29d" x="283.273338" y="61.376644" style="fill: #0000ff; stroke: #0000ff; stroke-width: 0.2"/>
     <use xlink:href="#m732dbad29d" x="170.21408" y="208.93188" style="fill: #0000ff; stroke: #0000ff; stroke-width: 0.2"/>
     <use xlink:href="#m732dbad29d" x="214.871021" y="142.387411" style="fill: #0000ff; stroke: #0000ff; stroke-width: 0.2"/>
     <use xlink:href="#m732dbad29d" x="243.209124" y="132.687626" style="fill: #0000ff; stroke: #0000ff; stroke-width: 0.2"/>
     <use xlink:href="#m732dbad29d" x="234.561116" y="135.721224" style="fill: #0000ff; stroke: #0000ff; stroke-width: 0.2"/>
     <use xlink:href="#m732dbad29d" x="255.423823" y="126.510118" style="fill: #0000ff; stroke: #0000ff; stroke-width: 0.2"/>
     <use xlink:href="#m732dbad29d" x="290.602157" y="92.991632" style="fill: #0000ff; stroke: #0000ff; stroke-width: 0.2"/>
     <use xlink:href="#m732dbad29d" x="172.363867" y="193.482611" style="fill: #0000ff; stroke: #0000ff; stroke-width: 0.2"/>
     <use xlink:href="#m732dbad29d" x="293.045097" y="79.735856" style="fill: #0000ff; stroke: #0000ff; stroke-width: 0.2"/>
     <use xlink:href="#m732dbad29d" x="164.10673" y="185.311857" style="fill: #0000ff; stroke: #0000ff; stroke-width: 0.2"/>
     <use xlink:href="#m732dbad29d" x="172.363867" y="211.391835" style="fill: #0000ff; stroke: #0000ff; stroke-width: 0.2"/>
     <use xlink:href="#m732dbad29d" x="244.528311" y="152.661622" style="fill: #0000ff; stroke: #0000ff; stroke-width: 0.2"/>
     <use xlink:href="#m732dbad29d" x="194.057173" y="160.65558" style="fill: #0000ff; stroke: #0000ff; stroke-width: 0.2"/>
     <use xlink:href="#m732dbad29d" x="198.81602" y="170.35991" style="fill: #0000ff; stroke: #0000ff; stroke-width: 0.2"/>
     <use xlink:href="#m732dbad29d" x="144.856364" y="194.373686" style="fill: #0000ff; stroke: #0000ff; stroke-width: 0.2"/>
     <use xlink:href="#m732dbad29d" x="288.647805" y="79.735856" style="fill: #0000ff; stroke: #0000ff; stroke-width: 0.2"/>
    </g>
   </g>
   <g id="PathCollection_2">
    <defs>
     <path id="mc8b2c77e11" d="M 0 2.236068 
C 0.593012 2.236068 1.161816 2.000462 1.581139 1.581139 
C 2.000462 1.161816 2.236068 0.593012 2.236068 0 
C 2.236068 -0.593012 2.000462 -1.161816 1.581139 -1.581139 
C 1.161816 -2.000462 0.593012 -2.236068 0 -2.236068 
C -0.593012 -2.236068 -1.161816 -2.000462 -1.581139 -1.581139 
C -2.000462 -1.161816 -2.236068 -0.593012 -2.236068 0 
C -2.236068 0.593012 -2.000462 1.161816 -1.581139 1.581139 
C -1.161816 2.000462 -0.593012 2.236068 0 2.236068 
z
" style="stroke: #ff0000; stroke-width: 0.2"/>
    </defs>
    <g clip-path="url(#padeeb3d5cb)">
     <use xlink:href="#mc8b2c77e11" x="260.798291" y="144.251379" style="fill: #ff0000; stroke: #ff0000; stroke-width: 0.2"/>
     <use xlink:href="#mc8b2c77e11" x="152.429478" y="211.359885" style="fill: #ff0000; stroke: #ff0000; stroke-width: 0.2"/>
     <use xlink:href="#mc8b2c77e11" x="205.343556" y="163.652241" style="fill: #ff0000; stroke: #ff0000; stroke-width: 0.2"/>
     <use xlink:href="#mc8b2c77e11" x="175.036443" y="206.037783" style="fill: #ff0000; stroke: #ff0000; stroke-width: 0.2"/>
     <use xlink:href="#mc8b2c77e11" x="242.622818" y="135.721224" style="fill: #ff0000; stroke: #ff0000; stroke-width: 0.2"/>
     <use xlink:href="#mc8b2c77e11" x="185.067155" y="101.222485" style="fill: #ff0000; stroke: #ff0000; stroke-width: 0.2"/>
     <use xlink:href="#mc8b2c77e11" x="226.597132" y="156.26815" style="fill: #ff0000; stroke: #ff0000; stroke-width: 0.2"/>
     <use xlink:href="#mc8b2c77e11" x="236.368892" y="181.409181" style="fill: #ff0000; stroke: #ff0000; stroke-width: 0.2"/>
     <use xlink:href="#mc8b2c77e11" x="168.406305" y="198.714062" style="fill: #ff0000; stroke: #ff0000; stroke-width: 0.2"/>
     <use xlink:href="#mc8b2c77e11" x="238.030091" y="133.352407" style="fill: #ff0000; stroke: #ff0000; stroke-width: 0.2"/>
     <use xlink:href="#mc8b2c77e11" x="210.962317" y="164.550486" style="fill: #ff0000; stroke: #ff0000; stroke-width: 0.2"/>
     <use xlink:href="#mc8b2c77e11" x="180.083557" y="188.556627" style="fill: #ff0000; stroke: #ff0000; stroke-width: 0.2"/>
     <use xlink:href="#mc8b2c77e11" x="271.058638" y="135.400238" style="fill: #ff0000; stroke: #ff0000; stroke-width: 0.2"/>
     <use xlink:href="#mc8b2c77e11" x="234.41454" y="126.510118" style="fill: #ff0000; stroke: #ff0000; stroke-width: 0.2"/>
     <use xlink:href="#mc8b2c77e11" x="269.592874" y="130.362012" style="fill: #ff0000; stroke: #ff0000; stroke-width: 0.2"/>
    </g>
   </g>
   <g id="matplotlib.axis_1">
    <g id="xtick_1">
     <g id="line2d_1">
      <defs>
       <path id="m53e0f30597" d="M 0 0 
L 0 3.5 
" style="stroke: #000000; stroke-width: 0.8"/>
      </defs>
      <g>
       <use xlink:href="#m53e0f30597" x="55.102753" y="314.118437" style="stroke: #000000; stroke-width: 0.8"/>
      </g>
     </g>
     <g id="text_1">
      <!-- 300 -->
      <g transform="translate(45.559003 328.716875) scale(0.1 -0.1)">
       <defs>
        <path id="DejaVuSans-33" d="M 2597 2516 
Q 3050 2419 3304 2112 
Q 3559 1806 3559 1356 
Q 3559 666 3084 287 
Q 2609 -91 1734 -91 
Q 1441 -91 1130 -33 
Q 819 25 488 141 
L 488 750 
Q 750 597 1062 519 
Q 1375 441 1716 441 
Q 2309 441 2620 675 
Q 2931 909 2931 1356 
Q 2931 1769 2642 2001 
Q 2353 2234 1838 2234 
L 1294 2234 
L 1294 2753 
L 1863 2753 
Q 2328 2753 2575 2939 
Q 2822 3125 2822 3475 
Q 2822 3834 2567 4026 
Q 2313 4219 1838 4219 
Q 1578 4219 1281 4162 
Q 984 4106 628 3988 
L 628 4550 
Q 988 4650 1302 4700 
Q 1616 4750 1894 4750 
Q 2613 4750 3031 4423 
Q 3450 4097 3450 3541 
Q 3450 3153 3228 2886 
Q 3006 2619 2597 2516 
z
" transform="scale(0.015625)"/>
        <path id="DejaVuSans-30" d="M 2034 4250 
Q 1547 4250 1301 3770 
Q 1056 3291 1056 2328 
Q 1056 1369 1301 889 
Q 1547 409 2034 409 
Q 2525 409 2770 889 
Q 3016 1369 3016 2328 
Q 3016 3291 2770 3770 
Q 2525 4250 2034 4250 
z
M 2034 4750 
Q 2819 4750 3233 4129 
Q 3647 3509 3647 2328 
Q 3647 1150 3233 529 
Q 2819 -91 2034 -91 
Q 1250 -91 836 529 
Q 422 1150 422 2328 
Q 422 3509 836 4129 
Q 1250 4750 2034 4750 
z
" transform="scale(0.015625)"/>
       </defs>
       <use xlink:href="#DejaVuSans-33"/>
       <use xlink:href="#DejaVuSans-30" transform="translate(63.623047 0)"/>
       <use xlink:href="#DejaVuSans-30" transform="translate(127.246094 0)"/>
      </g>
     </g>
    </g>
    <g id="xtick_2">
     <g id="line2d_2">
      <g>
       <use xlink:href="#m53e0f30597" x="103.961551" y="314.118437" style="stroke: #000000; stroke-width: 0.8"/>
      </g>
     </g>
     <g id="text_2">
      <!-- 400 -->
      <g transform="translate(94.417801 328.716875) scale(0.1 -0.1)">
       <defs>
        <path id="DejaVuSans-34" d="M 2419 4116 
L 825 1625 
L 2419 1625 
L 2419 4116 
z
M 2253 4666 
L 3047 4666 
L 3047 1625 
L 3713 1625 
L 3713 1100 
L 3047 1100 
L 3047 0 
L 2419 0 
L 2419 1100 
L 313 1100 
L 313 1709 
L 2253 4666 
z
" transform="scale(0.015625)"/>
       </defs>
       <use xlink:href="#DejaVuSans-34"/>
       <use xlink:href="#DejaVuSans-30" transform="translate(63.623047 0)"/>
       <use xlink:href="#DejaVuSans-30" transform="translate(127.246094 0)"/>
      </g>
     </g>
    </g>
    <g id="xtick_3">
     <g id="line2d_3">
      <g>
       <use xlink:href="#m53e0f30597" x="152.820348" y="314.118437" style="stroke: #000000; stroke-width: 0.8"/>
      </g>
     </g>
     <g id="text_3">
      <!-- 500 -->
      <g transform="translate(143.276598 328.716875) scale(0.1 -0.1)">
       <defs>
        <path id="DejaVuSans-35" d="M 691 4666 
L 3169 4666 
L 3169 4134 
L 1269 4134 
L 1269 2991 
Q 1406 3038 1543 3061 
Q 1681 3084 1819 3084 
Q 2600 3084 3056 2656 
Q 3513 2228 3513 1497 
Q 3513 744 3044 326 
Q 2575 -91 1722 -91 
Q 1428 -91 1123 -41 
Q 819 9 494 109 
L 494 744 
Q 775 591 1075 516 
Q 1375 441 1709 441 
Q 2250 441 2565 725 
Q 2881 1009 2881 1497 
Q 2881 1984 2565 2268 
Q 2250 2553 1709 2553 
Q 1456 2553 1204 2497 
Q 953 2441 691 2322 
L 691 4666 
z
" transform="scale(0.015625)"/>
       </defs>
       <use xlink:href="#DejaVuSans-35"/>
       <use xlink:href="#DejaVuSans-30" transform="translate(63.623047 0)"/>
       <use xlink:href="#DejaVuSans-30" transform="translate(127.246094 0)"/>
      </g>
     </g>
    </g>
    <g id="xtick_4">
     <g id="line2d_4">
      <g>
       <use xlink:href="#m53e0f30597" x="201.679146" y="314.118437" style="stroke: #000000; stroke-width: 0.8"/>
      </g>
     </g>
     <g id="text_4">
      <!-- 600 -->
      <g transform="translate(192.135396 328.716875) scale(0.1 -0.1)">
       <defs>
        <path id="DejaVuSans-36" d="M 2113 2584 
Q 1688 2584 1439 2293 
Q 1191 2003 1191 1497 
Q 1191 994 1439 701 
Q 1688 409 2113 409 
Q 2538 409 2786 701 
Q 3034 994 3034 1497 
Q 3034 2003 2786 2293 
Q 2538 2584 2113 2584 
z
M 3366 4563 
L 3366 3988 
Q 3128 4100 2886 4159 
Q 2644 4219 2406 4219 
Q 1781 4219 1451 3797 
Q 1122 3375 1075 2522 
Q 1259 2794 1537 2939 
Q 1816 3084 2150 3084 
Q 2853 3084 3261 2657 
Q 3669 2231 3669 1497 
Q 3669 778 3244 343 
Q 2819 -91 2113 -91 
Q 1303 -91 875 529 
Q 447 1150 447 2328 
Q 447 3434 972 4092 
Q 1497 4750 2381 4750 
Q 2619 4750 2861 4703 
Q 3103 4656 3366 4563 
z
" transform="scale(0.015625)"/>
       </defs>
       <use xlink:href="#DejaVuSans-36"/>
       <use xlink:href="#DejaVuSans-30" transform="translate(63.623047 0)"/>
       <use xlink:href="#DejaVuSans-30" transform="translate(127.246094 0)"/>
      </g>
     </g>
    </g>
    <g id="xtick_5">
     <g id="line2d_5">
      <g>
       <use xlink:href="#m53e0f30597" x="250.537943" y="314.118437" style="stroke: #000000; stroke-width: 0.8"/>
      </g>
     </g>
     <g id="text_5">
      <!-- 700 -->
      <g transform="translate(240.994193 328.716875) scale(0.1 -0.1)">
       <defs>
        <path id="DejaVuSans-37" d="M 525 4666 
L 3525 4666 
L 3525 4397 
L 1831 0 
L 1172 0 
L 2766 4134 
L 525 4134 
L 525 4666 
z
" transform="scale(0.015625)"/>
       </defs>
       <use xlink:href="#DejaVuSans-37"/>
       <use xlink:href="#DejaVuSans-30" transform="translate(63.623047 0)"/>
       <use xlink:href="#DejaVuSans-30" transform="translate(127.246094 0)"/>
      </g>
     </g>
    </g>
    <g id="xtick_6">
     <g id="line2d_6">
      <g>
       <use xlink:href="#m53e0f30597" x="299.396741" y="314.118437" style="stroke: #000000; stroke-width: 0.8"/>
      </g>
     </g>
     <g id="text_6">
      <!-- 800 -->
      <g transform="translate(289.852991 328.716875) scale(0.1 -0.1)">
       <defs>
        <path id="DejaVuSans-38" d="M 2034 2216 
Q 1584 2216 1326 1975 
Q 1069 1734 1069 1313 
Q 1069 891 1326 650 
Q 1584 409 2034 409 
Q 2484 409 2743 651 
Q 3003 894 3003 1313 
Q 3003 1734 2745 1975 
Q 2488 2216 2034 2216 
z
M 1403 2484 
Q 997 2584 770 2862 
Q 544 3141 544 3541 
Q 544 4100 942 4425 
Q 1341 4750 2034 4750 
Q 2731 4750 3128 4425 
Q 3525 4100 3525 3541 
Q 3525 3141 3298 2862 
Q 3072 2584 2669 2484 
Q 3125 2378 3379 2068 
Q 3634 1759 3634 1313 
Q 3634 634 3220 271 
Q 2806 -91 2034 -91 
Q 1263 -91 848 271 
Q 434 634 434 1313 
Q 434 1759 690 2068 
Q 947 2378 1403 2484 
z
M 1172 3481 
Q 1172 3119 1398 2916 
Q 1625 2713 2034 2713 
Q 2441 2713 2670 2916 
Q 2900 3119 2900 3481 
Q 2900 3844 2670 4047 
Q 2441 4250 2034 4250 
Q 1625 4250 1398 4047 
Q 1172 3844 1172 3481 
z
" transform="scale(0.015625)"/>
       </defs>
       <use xlink:href="#DejaVuSans-38"/>
       <use xlink:href="#DejaVuSans-30" transform="translate(63.623047 0)"/>
       <use xlink:href="#DejaVuSans-30" transform="translate(127.246094 0)"/>
      </g>
     </g>
    </g>
    <g id="text_7">
     <!-- Experimental Tc (K) -->
     <g transform="translate(141.062656 342.395) scale(0.1 -0.1)">
      <defs>
       <path id="DejaVuSans-Bold-45" d="M 588 4666 
L 3834 4666 
L 3834 3756 
L 1791 3756 
L 1791 2888 
L 3713 2888 
L 3713 1978 
L 1791 1978 
L 1791 909 
L 3903 909 
L 3903 0 
L 588 0 
L 588 4666 
z
" transform="scale(0.015625)"/>
       <path id="DejaVuSans-Bold-78" d="M 1422 1791 
L 159 3500 
L 1344 3500 
L 2059 2463 
L 2784 3500 
L 3969 3500 
L 2706 1797 
L 4031 0 
L 2847 0 
L 2059 1106 
L 1281 0 
L 97 0 
L 1422 1791 
z
" transform="scale(0.015625)"/>
       <path id="DejaVuSans-Bold-70" d="M 1656 506 
L 1656 -1331 
L 538 -1331 
L 538 3500 
L 1656 3500 
L 1656 2988 
Q 1888 3294 2169 3439 
Q 2450 3584 2816 3584 
Q 3463 3584 3878 3070 
Q 4294 2556 4294 1747 
Q 4294 938 3878 423 
Q 3463 -91 2816 -91 
Q 2450 -91 2169 54 
Q 1888 200 1656 506 
z
M 2400 2772 
Q 2041 2772 1848 2508 
Q 1656 2244 1656 1747 
Q 1656 1250 1848 986 
Q 2041 722 2400 722 
Q 2759 722 2948 984 
Q 3138 1247 3138 1747 
Q 3138 2247 2948 2509 
Q 2759 2772 2400 2772 
z
" transform="scale(0.015625)"/>
       <path id="DejaVuSans-Bold-65" d="M 4031 1759 
L 4031 1441 
L 1416 1441 
Q 1456 1047 1700 850 
Q 1944 653 2381 653 
Q 2734 653 3104 758 
Q 3475 863 3866 1075 
L 3866 213 
Q 3469 63 3072 -14 
Q 2675 -91 2278 -91 
Q 1328 -91 801 392 
Q 275 875 275 1747 
Q 275 2603 792 3093 
Q 1309 3584 2216 3584 
Q 3041 3584 3536 3087 
Q 4031 2591 4031 1759 
z
M 2881 2131 
Q 2881 2450 2695 2645 
Q 2509 2841 2209 2841 
Q 1884 2841 1681 2658 
Q 1478 2475 1428 2131 
L 2881 2131 
z
" transform="scale(0.015625)"/>
       <path id="DejaVuSans-Bold-72" d="M 3138 2547 
Q 2991 2616 2845 2648 
Q 2700 2681 2553 2681 
Q 2122 2681 1889 2404 
Q 1656 2128 1656 1613 
L 1656 0 
L 538 0 
L 538 3500 
L 1656 3500 
L 1656 2925 
Q 1872 3269 2151 3426 
Q 2431 3584 2822 3584 
Q 2878 3584 2943 3579 
Q 3009 3575 3134 3559 
L 3138 2547 
z
" transform="scale(0.015625)"/>
       <path id="DejaVuSans-Bold-69" d="M 538 3500 
L 1656 3500 
L 1656 0 
L 538 0 
L 538 3500 
z
M 538 4863 
L 1656 4863 
L 1656 3950 
L 538 3950 
L 538 4863 
z
" transform="scale(0.015625)"/>
       <path id="DejaVuSans-Bold-6d" d="M 3781 2919 
Q 3994 3244 4286 3414 
Q 4578 3584 4928 3584 
Q 5531 3584 5847 3212 
Q 6163 2841 6163 2131 
L 6163 0 
L 5038 0 
L 5038 1825 
Q 5041 1866 5042 1909 
Q 5044 1953 5044 2034 
Q 5044 2406 4934 2573 
Q 4825 2741 4581 2741 
Q 4263 2741 4089 2478 
Q 3916 2216 3909 1719 
L 3909 0 
L 2784 0 
L 2784 1825 
Q 2784 2406 2684 2573 
Q 2584 2741 2328 2741 
Q 2006 2741 1831 2477 
Q 1656 2213 1656 1722 
L 1656 0 
L 531 0 
L 531 3500 
L 1656 3500 
L 1656 2988 
Q 1863 3284 2130 3434 
Q 2397 3584 2719 3584 
Q 3081 3584 3359 3409 
Q 3638 3234 3781 2919 
z
" transform="scale(0.015625)"/>
       <path id="DejaVuSans-Bold-6e" d="M 4056 2131 
L 4056 0 
L 2931 0 
L 2931 347 
L 2931 1631 
Q 2931 2084 2911 2256 
Q 2891 2428 2841 2509 
Q 2775 2619 2662 2680 
Q 2550 2741 2406 2741 
Q 2056 2741 1856 2470 
Q 1656 2200 1656 1722 
L 1656 0 
L 538 0 
L 538 3500 
L 1656 3500 
L 1656 2988 
Q 1909 3294 2193 3439 
Q 2478 3584 2822 3584 
Q 3428 3584 3742 3212 
Q 4056 2841 4056 2131 
z
" transform="scale(0.015625)"/>
       <path id="DejaVuSans-Bold-74" d="M 1759 4494 
L 1759 3500 
L 2913 3500 
L 2913 2700 
L 1759 2700 
L 1759 1216 
Q 1759 972 1856 886 
Q 1953 800 2241 800 
L 2816 800 
L 2816 0 
L 1856 0 
Q 1194 0 917 276 
Q 641 553 641 1216 
L 641 2700 
L 84 2700 
L 84 3500 
L 641 3500 
L 641 4494 
L 1759 4494 
z
" transform="scale(0.015625)"/>
       <path id="DejaVuSans-Bold-61" d="M 2106 1575 
Q 1756 1575 1579 1456 
Q 1403 1338 1403 1106 
Q 1403 894 1545 773 
Q 1688 653 1941 653 
Q 2256 653 2472 879 
Q 2688 1106 2688 1447 
L 2688 1575 
L 2106 1575 
z
M 3816 1997 
L 3816 0 
L 2688 0 
L 2688 519 
Q 2463 200 2181 54 
Q 1900 -91 1497 -91 
Q 953 -91 614 226 
Q 275 544 275 1050 
Q 275 1666 698 1953 
Q 1122 2241 2028 2241 
L 2688 2241 
L 2688 2328 
Q 2688 2594 2478 2717 
Q 2269 2841 1825 2841 
Q 1466 2841 1156 2769 
Q 847 2697 581 2553 
L 581 3406 
Q 941 3494 1303 3539 
Q 1666 3584 2028 3584 
Q 2975 3584 3395 3211 
Q 3816 2838 3816 1997 
z
" transform="scale(0.015625)"/>
       <path id="DejaVuSans-Bold-6c" d="M 538 4863 
L 1656 4863 
L 1656 0 
L 538 0 
L 538 4863 
z
" transform="scale(0.015625)"/>
       <path id="DejaVuSans-Bold-20" transform="scale(0.015625)"/>
       <path id="DejaVuSans-Bold-54" d="M 31 4666 
L 4331 4666 
L 4331 3756 
L 2784 3756 
L 2784 0 
L 1581 0 
L 1581 3756 
L 31 3756 
L 31 4666 
z
" transform="scale(0.015625)"/>
       <path id="DejaVuSans-Bold-63" d="M 3366 3391 
L 3366 2478 
Q 3138 2634 2908 2709 
Q 2678 2784 2431 2784 
Q 1963 2784 1702 2511 
Q 1441 2238 1441 1747 
Q 1441 1256 1702 982 
Q 1963 709 2431 709 
Q 2694 709 2930 787 
Q 3166 866 3366 1019 
L 3366 103 
Q 3103 6 2833 -42 
Q 2563 -91 2291 -91 
Q 1344 -91 809 395 
Q 275 881 275 1747 
Q 275 2613 809 3098 
Q 1344 3584 2291 3584 
Q 2566 3584 2833 3536 
Q 3100 3488 3366 3391 
z
" transform="scale(0.015625)"/>
       <path id="DejaVuSans-Bold-28" d="M 2413 -844 
L 1484 -844 
Q 1006 -72 778 623 
Q 550 1319 550 2003 
Q 550 2688 779 3389 
Q 1009 4091 1484 4856 
L 2413 4856 
Q 2013 4116 1813 3408 
Q 1613 2700 1613 2009 
Q 1613 1319 1811 609 
Q 2009 -100 2413 -844 
z
" transform="scale(0.015625)"/>
       <path id="DejaVuSans-Bold-4b" d="M 588 4666 
L 1791 4666 
L 1791 2963 
L 3525 4666 
L 4922 4666 
L 2675 2456 
L 5153 0 
L 3647 0 
L 1791 1838 
L 1791 0 
L 588 0 
L 588 4666 
z
" transform="scale(0.015625)"/>
       <path id="DejaVuSans-Bold-29" d="M 513 -844 
Q 913 -100 1113 609 
Q 1313 1319 1313 2009 
Q 1313 2700 1113 3408 
Q 913 4116 513 4856 
L 1441 4856 
Q 1916 4091 2145 3389 
Q 2375 2688 2375 2003 
Q 2375 1319 2147 623 
Q 1919 -72 1441 -844 
L 513 -844 
z
" transform="scale(0.015625)"/>
      </defs>
      <use xlink:href="#DejaVuSans-Bold-45"/>
      <use xlink:href="#DejaVuSans-Bold-78" transform="translate(68.310547 0)"/>
      <use xlink:href="#DejaVuSans-Bold-70" transform="translate(132.8125 0)"/>
      <use xlink:href="#DejaVuSans-Bold-65" transform="translate(204.394531 0)"/>
      <use xlink:href="#DejaVuSans-Bold-72" transform="translate(272.216797 0)"/>
      <use xlink:href="#DejaVuSans-Bold-69" transform="translate(321.533203 0)"/>
      <use xlink:href="#DejaVuSans-Bold-6d" transform="translate(355.810547 0)"/>
      <use xlink:href="#DejaVuSans-Bold-65" transform="translate(460.009766 0)"/>
      <use xlink:href="#DejaVuSans-Bold-6e" transform="translate(527.832031 0)"/>
      <use xlink:href="#DejaVuSans-Bold-74" transform="translate(599.023438 0)"/>
      <use xlink:href="#DejaVuSans-Bold-61" transform="translate(646.826172 0)"/>
      <use xlink:href="#DejaVuSans-Bold-6c" transform="translate(714.306641 0)"/>
      <use xlink:href="#DejaVuSans-Bold-20" transform="translate(748.583984 0)"/>
      <use xlink:href="#DejaVuSans-Bold-54" transform="translate(783.398438 0)"/>
      <use xlink:href="#DejaVuSans-Bold-63" transform="translate(838.361328 0)"/>
      <use xlink:href="#DejaVuSans-Bold-20" transform="translate(897.638672 0)"/>
      <use xlink:href="#DejaVuSans-Bold-28" transform="translate(932.453125 0)"/>
      <use xlink:href="#DejaVuSans-Bold-4b" transform="translate(978.15625 0)"/>
      <use xlink:href="#DejaVuSans-Bold-29" transform="translate(1055.646484 0)"/>
     </g>
    </g>
   </g>
   <g id="matplotlib.axis_2">
    <g id="ytick_1">
     <g id="line2d_7">
      <defs>
       <path id="m70a531c725" d="M 0 0 
L -3.5 0 
" style="stroke: #000000; stroke-width: 0.8"/>
      </defs>
      <g>
       <use xlink:href="#m70a531c725" x="46.965625" y="306.227063" style="stroke: #000000; stroke-width: 0.8"/>
      </g>
     </g>
     <g id="text_8">
      <!-- 300 -->
      <g transform="translate(20.878125 310.026281) scale(0.1 -0.1)">
       <use xlink:href="#DejaVuSans-33"/>
       <use xlink:href="#DejaVuSans-30" transform="translate(63.623047 0)"/>
       <use xlink:href="#DejaVuSans-30" transform="translate(127.246094 0)"/>
      </g>
     </g>
    </g>
    <g id="ytick_2">
     <g id="line2d_8">
      <g>
       <use xlink:href="#m70a531c725" x="46.965625" y="258.843872" style="stroke: #000000; stroke-width: 0.8"/>
      </g>
     </g>
     <g id="text_9">
      <!-- 400 -->
      <g transform="translate(20.878125 262.643091) scale(0.1 -0.1)">
       <use xlink:href="#DejaVuSans-34"/>
       <use xlink:href="#DejaVuSans-30" transform="translate(63.623047 0)"/>
       <use xlink:href="#DejaVuSans-30" transform="translate(127.246094 0)"/>
      </g>
     </g>
    </g>
    <g id="ytick_3">
     <g id="line2d_9">
      <g>
       <use xlink:href="#m70a531c725" x="46.965625" y="211.460681" style="stroke: #000000; stroke-width: 0.8"/>
      </g>
     </g>
     <g id="text_10">
      <!-- 500 -->
      <g transform="translate(20.878125 215.2599) scale(0.1 -0.1)">
       <use xlink:href="#DejaVuSans-35"/>
       <use xlink:href="#DejaVuSans-30" transform="translate(63.623047 0)"/>
       <use xlink:href="#DejaVuSans-30" transform="translate(127.246094 0)"/>
      </g>
     </g>
    </g>
    <g id="ytick_4">
     <g id="line2d_10">
      <g>
       <use xlink:href="#m70a531c725" x="46.965625" y="164.07749" style="stroke: #000000; stroke-width: 0.8"/>
      </g>
     </g>
     <g id="text_11">
      <!-- 600 -->
      <g transform="translate(20.878125 167.876709) scale(0.1 -0.1)">
       <use xlink:href="#DejaVuSans-36"/>
       <use xlink:href="#DejaVuSans-30" transform="translate(63.623047 0)"/>
       <use xlink:href="#DejaVuSans-30" transform="translate(127.246094 0)"/>
      </g>
     </g>
    </g>
    <g id="ytick_5">
     <g id="line2d_11">
      <g>
       <use xlink:href="#m70a531c725" x="46.965625" y="116.694299" style="stroke: #000000; stroke-width: 0.8"/>
      </g>
     </g>
     <g id="text_12">
      <!-- 700 -->
      <g transform="translate(20.878125 120.493518) scale(0.1 -0.1)">
       <use xlink:href="#DejaVuSans-37"/>
       <use xlink:href="#DejaVuSans-30" transform="translate(63.623047 0)"/>
       <use xlink:href="#DejaVuSans-30" transform="translate(127.246094 0)"/>
      </g>
     </g>
    </g>
    <g id="ytick_6">
     <g id="line2d_12">
      <g>
       <use xlink:href="#m70a531c725" x="46.965625" y="69.311109" style="stroke: #000000; stroke-width: 0.8"/>
      </g>
     </g>
     <g id="text_13">
      <!-- 800 -->
      <g transform="translate(20.878125 73.110327) scale(0.1 -0.1)">
       <use xlink:href="#DejaVuSans-38"/>
       <use xlink:href="#DejaVuSans-30" transform="translate(63.623047 0)"/>
       <use xlink:href="#DejaVuSans-30" transform="translate(127.246094 0)"/>
      </g>
     </g>
    </g>
    <g id="text_14">
     <!-- Predicted Tc (K) -->
     <g transform="translate(14.798438 214.235781) rotate(-90) scale(0.1 -0.1)">
      <defs>
       <path id="DejaVuSans-Bold-50" d="M 588 4666 
L 2584 4666 
Q 3475 4666 3951 4270 
Q 4428 3875 4428 3144 
Q 4428 2409 3951 2014 
Q 3475 1619 2584 1619 
L 1791 1619 
L 1791 0 
L 588 0 
L 588 4666 
z
M 1791 3794 
L 1791 2491 
L 2456 2491 
Q 2806 2491 2997 2661 
Q 3188 2831 3188 3144 
Q 3188 3456 2997 3625 
Q 2806 3794 2456 3794 
L 1791 3794 
z
" transform="scale(0.015625)"/>
       <path id="DejaVuSans-Bold-64" d="M 2919 2988 
L 2919 4863 
L 4044 4863 
L 4044 0 
L 2919 0 
L 2919 506 
Q 2688 197 2409 53 
Q 2131 -91 1766 -91 
Q 1119 -91 703 423 
Q 288 938 288 1747 
Q 288 2556 703 3070 
Q 1119 3584 1766 3584 
Q 2128 3584 2408 3439 
Q 2688 3294 2919 2988 
z
M 2181 722 
Q 2541 722 2730 984 
Q 2919 1247 2919 1747 
Q 2919 2247 2730 2509 
Q 2541 2772 2181 2772 
Q 1825 2772 1636 2509 
Q 1447 2247 1447 1747 
Q 1447 1247 1636 984 
Q 1825 722 2181 722 
z
" transform="scale(0.015625)"/>
      </defs>
      <use xlink:href="#DejaVuSans-Bold-50"/>
      <use xlink:href="#DejaVuSans-Bold-72" transform="translate(73.291016 0)"/>
      <use xlink:href="#DejaVuSans-Bold-65" transform="translate(122.607422 0)"/>
      <use xlink:href="#DejaVuSans-Bold-64" transform="translate(190.429688 0)"/>
      <use xlink:href="#DejaVuSans-Bold-69" transform="translate(262.011719 0)"/>
      <use xlink:href="#DejaVuSans-Bold-63" transform="translate(296.289062 0)"/>
      <use xlink:href="#DejaVuSans-Bold-74" transform="translate(355.566406 0)"/>
      <use xlink:href="#DejaVuSans-Bold-65" transform="translate(403.369141 0)"/>
      <use xlink:href="#DejaVuSans-Bold-64" transform="translate(471.191406 0)"/>
      <use xlink:href="#DejaVuSans-Bold-20" transform="translate(542.773438 0)"/>
      <use xlink:href="#DejaVuSans-Bold-54" transform="translate(577.587891 0)"/>
      <use xlink:href="#DejaVuSans-Bold-63" transform="translate(632.550781 0)"/>
      <use xlink:href="#DejaVuSans-Bold-20" transform="translate(691.828125 0)"/>
      <use xlink:href="#DejaVuSans-Bold-28" transform="translate(726.642578 0)"/>
      <use xlink:href="#DejaVuSans-Bold-4b" transform="translate(772.345703 0)"/>
      <use xlink:href="#DejaVuSans-Bold-29" transform="translate(849.835938 0)"/>
     </g>
    </g>
   </g>
   <g id="line2d_13">
    <path d="M 60.52608 300.967528 
L 331.73517 37.949347 
" clip-path="url(#padeeb3d5cb)" style="fill: none; stroke-dasharray: 3.7,1.6; stroke-dashoffset: 0; stroke: #000000; stroke-opacity: 0.7"/>
   </g>
   <g id="patch_3">
    <path d="M 46.965625 314.118437 
L 46.965625 24.798437 
" style="fill: none; stroke: #000000; stroke-width: 0.8; stroke-linejoin: miter; stroke-linecap: square"/>
   </g>
   <g id="patch_4">
    <path d="M 345.295625 314.118437 
L 345.295625 24.798437 
" style="fill: none; stroke: #000000; stroke-width: 0.8; stroke-linejoin: miter; stroke-linecap: square"/>
   </g>
   <g id="patch_5">
    <path d="M 46.965625 314.118437 
L 345.295625 314.118437 
" style="fill: none; stroke: #000000; stroke-width: 0.8; stroke-linejoin: miter; stroke-linecap: square"/>
   </g>
   <g id="patch_6">
    <path d="M 46.965625 24.798437 
L 345.295625 24.798437 
" style="fill: none; stroke: #000000; stroke-width: 0.8; stroke-linejoin: miter; stroke-linecap: square"/>
   </g>
   <g id="text_15">
    <!-- $R^2_{\mathrm{Train}} = 0.78$ -->
    <g style="fill: #0000ff" transform="translate(52.932225 37.864837) scale(0.08 -0.08)">
     <defs>
      <path id="DejaVuSans-Oblique-52" d="M 1613 4147 
L 1294 2491 
L 2106 2491 
Q 2584 2491 2879 2755 
Q 3175 3019 3175 3444 
Q 3175 3784 2976 3965 
Q 2778 4147 2406 4147 
L 1613 4147 
z
M 2772 2241 
Q 2972 2194 3105 2009 
Q 3238 1825 3413 1275 
L 3809 0 
L 3144 0 
L 2778 1197 
Q 2638 1659 2453 1815 
Q 2269 1972 1888 1972 
L 1191 1972 
L 806 0 
L 172 0 
L 1081 4666 
L 2503 4666 
Q 3150 4666 3495 4373 
Q 3841 4081 3841 3531 
Q 3841 3044 3547 2687 
Q 3253 2331 2772 2241 
z
" transform="scale(0.015625)"/>
      <path id="DejaVuSans-32" d="M 1228 531 
L 3431 531 
L 3431 0 
L 469 0 
L 469 531 
Q 828 903 1448 1529 
Q 2069 2156 2228 2338 
Q 2531 2678 2651 2914 
Q 2772 3150 2772 3378 
Q 2772 3750 2511 3984 
Q 2250 4219 1831 4219 
Q 1534 4219 1204 4116 
Q 875 4013 500 3803 
L 500 4441 
Q 881 4594 1212 4672 
Q 1544 4750 1819 4750 
Q 2544 4750 2975 4387 
Q 3406 4025 3406 3419 
Q 3406 3131 3298 2873 
Q 3191 2616 2906 2266 
Q 2828 2175 2409 1742 
Q 1991 1309 1228 531 
z
" transform="scale(0.015625)"/>
      <path id="DejaVuSans-54" d="M -19 4666 
L 3928 4666 
L 3928 4134 
L 2272 4134 
L 2272 0 
L 1638 0 
L 1638 4134 
L -19 4134 
L -19 4666 
z
" transform="scale(0.015625)"/>
      <path id="DejaVuSans-72" d="M 2631 2963 
Q 2534 3019 2420 3045 
Q 2306 3072 2169 3072 
Q 1681 3072 1420 2755 
Q 1159 2438 1159 1844 
L 1159 0 
L 581 0 
L 581 3500 
L 1159 3500 
L 1159 2956 
Q 1341 3275 1631 3429 
Q 1922 3584 2338 3584 
Q 2397 3584 2469 3576 
Q 2541 3569 2628 3553 
L 2631 2963 
z
" transform="scale(0.015625)"/>
      <path id="DejaVuSans-61" d="M 2194 1759 
Q 1497 1759 1228 1600 
Q 959 1441 959 1056 
Q 959 750 1161 570 
Q 1363 391 1709 391 
Q 2188 391 2477 730 
Q 2766 1069 2766 1631 
L 2766 1759 
L 2194 1759 
z
M 3341 1997 
L 3341 0 
L 2766 0 
L 2766 531 
Q 2569 213 2275 61 
Q 1981 -91 1556 -91 
Q 1019 -91 701 211 
Q 384 513 384 1019 
Q 384 1609 779 1909 
Q 1175 2209 1959 2209 
L 2766 2209 
L 2766 2266 
Q 2766 2663 2505 2880 
Q 2244 3097 1772 3097 
Q 1472 3097 1187 3025 
Q 903 2953 641 2809 
L 641 3341 
Q 956 3463 1253 3523 
Q 1550 3584 1831 3584 
Q 2591 3584 2966 3190 
Q 3341 2797 3341 1997 
z
" transform="scale(0.015625)"/>
      <path id="DejaVuSans-69" d="M 603 3500 
L 1178 3500 
L 1178 0 
L 603 0 
L 603 3500 
z
M 603 4863 
L 1178 4863 
L 1178 4134 
L 603 4134 
L 603 4863 
z
" transform="scale(0.015625)"/>
      <path id="DejaVuSans-6e" d="M 3513 2113 
L 3513 0 
L 2938 0 
L 2938 2094 
Q 2938 2591 2744 2837 
Q 2550 3084 2163 3084 
Q 1697 3084 1428 2787 
Q 1159 2491 1159 1978 
L 1159 0 
L 581 0 
L 581 3500 
L 1159 3500 
L 1159 2956 
Q 1366 3272 1645 3428 
Q 1925 3584 2291 3584 
Q 2894 3584 3203 3211 
Q 3513 2838 3513 2113 
z
" transform="scale(0.015625)"/>
      <path id="DejaVuSans-3d" d="M 678 2906 
L 4684 2906 
L 4684 2381 
L 678 2381 
L 678 2906 
z
M 678 1631 
L 4684 1631 
L 4684 1100 
L 678 1100 
L 678 1631 
z
" transform="scale(0.015625)"/>
      <path id="DejaVuSans-2e" d="M 684 794 
L 1344 794 
L 1344 0 
L 684 0 
L 684 794 
z
" transform="scale(0.015625)"/>
     </defs>
     <use xlink:href="#DejaVuSans-Oblique-52" transform="translate(0 0.701562)"/>
     <use xlink:href="#DejaVuSans-32" transform="translate(76.499193 39.046875) scale(0.7)"/>
     <use xlink:href="#DejaVuSans-54" transform="translate(69.482422 -26.642188) scale(0.7)"/>
     <use xlink:href="#DejaVuSans-72" transform="translate(112.241211 -26.642188) scale(0.7)"/>
     <use xlink:href="#DejaVuSans-61" transform="translate(141.020508 -26.642188) scale(0.7)"/>
     <use xlink:href="#DejaVuSans-69" transform="translate(183.916016 -26.642188) scale(0.7)"/>
     <use xlink:href="#DejaVuSans-6e" transform="translate(203.364258 -26.642188) scale(0.7)"/>
     <use xlink:href="#DejaVuSans-3d" transform="translate(269.946289 0.701562)"/>
     <use xlink:href="#DejaVuSans-30" transform="translate(373.217773 0.701562)"/>
     <use xlink:href="#DejaVuSans-2e" transform="translate(436.84082 0.701562)"/>
     <use xlink:href="#DejaVuSans-37" transform="translate(460.87793 0.701562)"/>
     <use xlink:href="#DejaVuSans-38" transform="translate(524.500977 0.701562)"/>
    </g>
    <!-- $\mathrm{MAE}_{\mathrm{Train}} = 31.27$ -->
    <g style="fill: #0000ff" transform="translate(52.932225 47.479337) scale(0.08 -0.08)">
     <defs>
      <path id="DejaVuSans-4d" d="M 628 4666 
L 1569 4666 
L 2759 1491 
L 3956 4666 
L 4897 4666 
L 4897 0 
L 4281 0 
L 4281 4097 
L 3078 897 
L 2444 897 
L 1241 4097 
L 1241 0 
L 628 0 
L 628 4666 
z
" transform="scale(0.015625)"/>
      <path id="DejaVuSans-41" d="M 2188 4044 
L 1331 1722 
L 3047 1722 
L 2188 4044 
z
M 1831 4666 
L 2547 4666 
L 4325 0 
L 3669 0 
L 3244 1197 
L 1141 1197 
L 716 0 
L 50 0 
L 1831 4666 
z
" transform="scale(0.015625)"/>
      <path id="DejaVuSans-45" d="M 628 4666 
L 3578 4666 
L 3578 4134 
L 1259 4134 
L 1259 2753 
L 3481 2753 
L 3481 2222 
L 1259 2222 
L 1259 531 
L 3634 531 
L 3634 0 
L 628 0 
L 628 4666 
z
" transform="scale(0.015625)"/>
      <path id="DejaVuSans-31" d="M 794 531 
L 1825 531 
L 1825 4091 
L 703 3866 
L 703 4441 
L 1819 4666 
L 2450 4666 
L 2450 531 
L 3481 531 
L 3481 0 
L 794 0 
L 794 531 
z
" transform="scale(0.015625)"/>
     </defs>
     <use xlink:href="#DejaVuSans-4d" transform="translate(0 0.78125)"/>
     <use xlink:href="#DejaVuSans-41" transform="translate(86.279297 0.78125)"/>
     <use xlink:href="#DejaVuSans-45" transform="translate(154.6875 0.78125)"/>
     <use xlink:href="#DejaVuSans-54" transform="translate(218.828125 -15.625) scale(0.7)"/>
     <use xlink:href="#DejaVuSans-72" transform="translate(261.586914 -15.625) scale(0.7)"/>
     <use xlink:href="#DejaVuSans-61" transform="translate(290.366211 -15.625) scale(0.7)"/>
     <use xlink:href="#DejaVuSans-69" transform="translate(333.261719 -15.625) scale(0.7)"/>
     <use xlink:href="#DejaVuSans-6e" transform="translate(352.709961 -15.625) scale(0.7)"/>
     <use xlink:href="#DejaVuSans-3d" transform="translate(419.291992 0.78125)"/>
     <use xlink:href="#DejaVuSans-33" transform="translate(522.563477 0.78125)"/>
     <use xlink:href="#DejaVuSans-31" transform="translate(586.186523 0.78125)"/>
     <use xlink:href="#DejaVuSans-2e" transform="translate(649.80957 0.78125)"/>
     <use xlink:href="#DejaVuSans-32" transform="translate(676.09668 0.78125)"/>
     <use xlink:href="#DejaVuSans-37" transform="translate(739.719727 0.78125)"/>
    </g>
    <!-- $\mathrm{RMSE}_{\mathrm{Train}} = 50.63$ -->
    <g style="fill: #0000ff" transform="translate(52.932225 56.437588) scale(0.08 -0.08)">
     <defs>
      <path id="DejaVuSans-52" d="M 2841 2188 
Q 3044 2119 3236 1894 
Q 3428 1669 3622 1275 
L 4263 0 
L 3584 0 
L 2988 1197 
Q 2756 1666 2539 1819 
Q 2322 1972 1947 1972 
L 1259 1972 
L 1259 0 
L 628 0 
L 628 4666 
L 2053 4666 
Q 2853 4666 3247 4331 
Q 3641 3997 3641 3322 
Q 3641 2881 3436 2590 
Q 3231 2300 2841 2188 
z
M 1259 4147 
L 1259 2491 
L 2053 2491 
Q 2509 2491 2742 2702 
Q 2975 2913 2975 3322 
Q 2975 3731 2742 3939 
Q 2509 4147 2053 4147 
L 1259 4147 
z
" transform="scale(0.015625)"/>
      <path id="DejaVuSans-53" d="M 3425 4513 
L 3425 3897 
Q 3066 4069 2747 4153 
Q 2428 4238 2131 4238 
Q 1616 4238 1336 4038 
Q 1056 3838 1056 3469 
Q 1056 3159 1242 3001 
Q 1428 2844 1947 2747 
L 2328 2669 
Q 3034 2534 3370 2195 
Q 3706 1856 3706 1288 
Q 3706 609 3251 259 
Q 2797 -91 1919 -91 
Q 1588 -91 1214 -16 
Q 841 59 441 206 
L 441 856 
Q 825 641 1194 531 
Q 1563 422 1919 422 
Q 2459 422 2753 634 
Q 3047 847 3047 1241 
Q 3047 1584 2836 1778 
Q 2625 1972 2144 2069 
L 1759 2144 
Q 1053 2284 737 2584 
Q 422 2884 422 3419 
Q 422 4038 858 4394 
Q 1294 4750 2059 4750 
Q 2388 4750 2728 4690 
Q 3069 4631 3425 4513 
z
" transform="scale(0.015625)"/>
     </defs>
     <use xlink:href="#DejaVuSans-52" transform="translate(0 0.78125)"/>
     <use xlink:href="#DejaVuSans-4d" transform="translate(69.482422 0.78125)"/>
     <use xlink:href="#DejaVuSans-53" transform="translate(155.761719 0.78125)"/>
     <use xlink:href="#DejaVuSans-45" transform="translate(219.238281 0.78125)"/>
     <use xlink:href="#DejaVuSans-54" transform="translate(283.378906 -15.625) scale(0.7)"/>
     <use xlink:href="#DejaVuSans-72" transform="translate(326.137695 -15.625) scale(0.7)"/>
     <use xlink:href="#DejaVuSans-61" transform="translate(354.916992 -15.625) scale(0.7)"/>
     <use xlink:href="#DejaVuSans-69" transform="translate(397.8125 -15.625) scale(0.7)"/>
     <use xlink:href="#DejaVuSans-6e" transform="translate(417.260742 -15.625) scale(0.7)"/>
     <use xlink:href="#DejaVuSans-3d" transform="translate(483.842773 0.78125)"/>
     <use xlink:href="#DejaVuSans-35" transform="translate(587.114258 0.78125)"/>
     <use xlink:href="#DejaVuSans-30" transform="translate(650.737305 0.78125)"/>
     <use xlink:href="#DejaVuSans-2e" transform="translate(714.360352 0.78125)"/>
     <use xlink:href="#DejaVuSans-36" transform="translate(746.147461 0.78125)"/>
     <use xlink:href="#DejaVuSans-33" transform="translate(809.770508 0.78125)"/>
    </g>
   </g>
   <g id="text_16">
    <!-- $R^2_{\mathrm{Test}} = 0.29$ -->
    <g style="fill: #ff0000" transform="translate(294.449025 288.095537) scale(0.08 -0.08)">
     <defs>
      <path id="DejaVuSans-65" d="M 3597 1894 
L 3597 1613 
L 953 1613 
Q 991 1019 1311 708 
Q 1631 397 2203 397 
Q 2534 397 2845 478 
Q 3156 559 3463 722 
L 3463 178 
Q 3153 47 2828 -22 
Q 2503 -91 2169 -91 
Q 1331 -91 842 396 
Q 353 884 353 1716 
Q 353 2575 817 3079 
Q 1281 3584 2069 3584 
Q 2775 3584 3186 3129 
Q 3597 2675 3597 1894 
z
M 3022 2063 
Q 3016 2534 2758 2815 
Q 2500 3097 2075 3097 
Q 1594 3097 1305 2825 
Q 1016 2553 972 2059 
L 3022 2063 
z
" transform="scale(0.015625)"/>
      <path id="DejaVuSans-73" d="M 2834 3397 
L 2834 2853 
Q 2591 2978 2328 3040 
Q 2066 3103 1784 3103 
Q 1356 3103 1142 2972 
Q 928 2841 928 2578 
Q 928 2378 1081 2264 
Q 1234 2150 1697 2047 
L 1894 2003 
Q 2506 1872 2764 1633 
Q 3022 1394 3022 966 
Q 3022 478 2636 193 
Q 2250 -91 1575 -91 
Q 1294 -91 989 -36 
Q 684 19 347 128 
L 347 722 
Q 666 556 975 473 
Q 1284 391 1588 391 
Q 1994 391 2212 530 
Q 2431 669 2431 922 
Q 2431 1156 2273 1281 
Q 2116 1406 1581 1522 
L 1381 1569 
Q 847 1681 609 1914 
Q 372 2147 372 2553 
Q 372 3047 722 3315 
Q 1072 3584 1716 3584 
Q 2034 3584 2315 3537 
Q 2597 3491 2834 3397 
z
" transform="scale(0.015625)"/>
      <path id="DejaVuSans-74" d="M 1172 4494 
L 1172 3500 
L 2356 3500 
L 2356 3053 
L 1172 3053 
L 1172 1153 
Q 1172 725 1289 603 
Q 1406 481 1766 481 
L 2356 481 
L 2356 0 
L 1766 0 
Q 1100 0 847 248 
Q 594 497 594 1153 
L 594 3053 
L 172 3053 
L 172 3500 
L 594 3500 
L 594 4494 
L 1172 4494 
z
" transform="scale(0.015625)"/>
      <path id="DejaVuSans-39" d="M 703 97 
L 703 672 
Q 941 559 1184 500 
Q 1428 441 1663 441 
Q 2288 441 2617 861 
Q 2947 1281 2994 2138 
Q 2813 1869 2534 1725 
Q 2256 1581 1919 1581 
Q 1219 1581 811 2004 
Q 403 2428 403 3163 
Q 403 3881 828 4315 
Q 1253 4750 1959 4750 
Q 2769 4750 3195 4129 
Q 3622 3509 3622 2328 
Q 3622 1225 3098 567 
Q 2575 -91 1691 -91 
Q 1453 -91 1209 -44 
Q 966 3 703 97 
z
M 1959 2075 
Q 2384 2075 2632 2365 
Q 2881 2656 2881 3163 
Q 2881 3666 2632 3958 
Q 2384 4250 1959 4250 
Q 1534 4250 1286 3958 
Q 1038 3666 1038 3163 
Q 1038 2656 1286 2365 
Q 1534 2075 1959 2075 
z
" transform="scale(0.015625)"/>
     </defs>
     <use xlink:href="#DejaVuSans-Oblique-52" transform="translate(0 0.765625)"/>
     <use xlink:href="#DejaVuSans-32" transform="translate(76.499193 39.046875) scale(0.7)"/>
     <use xlink:href="#DejaVuSans-54" transform="translate(69.482422 -26.578125) scale(0.7)"/>
     <use xlink:href="#DejaVuSans-65" transform="translate(112.241211 -26.578125) scale(0.7)"/>
     <use xlink:href="#DejaVuSans-73" transform="translate(155.307617 -26.578125) scale(0.7)"/>
     <use xlink:href="#DejaVuSans-74" transform="translate(191.777344 -26.578125) scale(0.7)"/>
     <use xlink:href="#DejaVuSans-3d" transform="translate(241.44043 0.765625)"/>
     <use xlink:href="#DejaVuSans-30" transform="translate(344.711914 0.765625)"/>
     <use xlink:href="#DejaVuSans-2e" transform="translate(408.334961 0.765625)"/>
     <use xlink:href="#DejaVuSans-32" transform="translate(434.62207 0.765625)"/>
     <use xlink:href="#DejaVuSans-39" transform="translate(496.495117 0.765625)"/>
    </g>
    <!-- $\mathrm{MAE}_{\mathrm{Test}} = 43.81$ -->
    <g style="fill: #ff0000" transform="translate(277.089025 297.710037) scale(0.08 -0.08)">
     <use xlink:href="#DejaVuSans-4d" transform="translate(0 0.78125)"/>
     <use xlink:href="#DejaVuSans-41" transform="translate(86.279297 0.78125)"/>
     <use xlink:href="#DejaVuSans-45" transform="translate(154.6875 0.78125)"/>
     <use xlink:href="#DejaVuSans-54" transform="translate(218.828125 -15.625) scale(0.7)"/>
     <use xlink:href="#DejaVuSans-65" transform="translate(261.586914 -15.625) scale(0.7)"/>
     <use xlink:href="#DejaVuSans-73" transform="translate(304.65332 -15.625) scale(0.7)"/>
     <use xlink:href="#DejaVuSans-74" transform="translate(341.123047 -15.625) scale(0.7)"/>
     <use xlink:href="#DejaVuSans-3d" transform="translate(390.786133 0.78125)"/>
     <use xlink:href="#DejaVuSans-34" transform="translate(494.057617 0.78125)"/>
     <use xlink:href="#DejaVuSans-33" transform="translate(557.680664 0.78125)"/>
     <use xlink:href="#DejaVuSans-2e" transform="translate(621.303711 0.78125)"/>
     <use xlink:href="#DejaVuSans-38" transform="translate(650.46582 0.78125)"/>
     <use xlink:href="#DejaVuSans-31" transform="translate(714.088867 0.78125)"/>
    </g>
    <!-- $\mathrm{RMSE}_{\mathrm{Test}} = 63.53$ -->
    <g style="fill: #ff0000" transform="translate(271.729025 306.668287) scale(0.08 -0.08)">
     <use xlink:href="#DejaVuSans-52" transform="translate(0 0.78125)"/>
     <use xlink:href="#DejaVuSans-4d" transform="translate(69.482422 0.78125)"/>
     <use xlink:href="#DejaVuSans-53" transform="translate(155.761719 0.78125)"/>
     <use xlink:href="#DejaVuSans-45" transform="translate(219.238281 0.78125)"/>
     <use xlink:href="#DejaVuSans-54" transform="translate(283.378906 -15.625) scale(0.7)"/>
     <use xlink:href="#DejaVuSans-65" transform="translate(326.137695 -15.625) scale(0.7)"/>
     <use xlink:href="#DejaVuSans-73" transform="translate(369.204102 -15.625) scale(0.7)"/>
     <use xlink:href="#DejaVuSans-74" transform="translate(405.673828 -15.625) scale(0.7)"/>
     <use xlink:href="#DejaVuSans-3d" transform="translate(455.336914 0.78125)"/>
     <use xlink:href="#DejaVuSans-36" transform="translate(558.608398 0.78125)"/>
     <use xlink:href="#DejaVuSans-33" transform="translate(622.231445 0.78125)"/>
     <use xlink:href="#DejaVuSans-2e" transform="translate(685.854492 0.78125)"/>
     <use xlink:href="#DejaVuSans-35" transform="translate(717.641602 0.78125)"/>
     <use xlink:href="#DejaVuSans-33" transform="translate(781.264648 0.78125)"/>
    </g>
   </g>
   <g id="text_17">
    <!-- Tc comparison (JRGC) -->
    <g transform="translate(136.170469 14.798438) scale(0.1 -0.1)">
     <defs>
      <path id="DejaVuSans-Bold-6f" d="M 2203 2784 
Q 1831 2784 1636 2517 
Q 1441 2250 1441 1747 
Q 1441 1244 1636 976 
Q 1831 709 2203 709 
Q 2569 709 2762 976 
Q 2956 1244 2956 1747 
Q 2956 2250 2762 2517 
Q 2569 2784 2203 2784 
z
M 2203 3584 
Q 3106 3584 3614 3096 
Q 4122 2609 4122 1747 
Q 4122 884 3614 396 
Q 3106 -91 2203 -91 
Q 1297 -91 786 396 
Q 275 884 275 1747 
Q 275 2609 786 3096 
Q 1297 3584 2203 3584 
z
" transform="scale(0.015625)"/>
      <path id="DejaVuSans-Bold-73" d="M 3272 3391 
L 3272 2541 
Q 2913 2691 2578 2766 
Q 2244 2841 1947 2841 
Q 1628 2841 1473 2761 
Q 1319 2681 1319 2516 
Q 1319 2381 1436 2309 
Q 1553 2238 1856 2203 
L 2053 2175 
Q 2913 2066 3209 1816 
Q 3506 1566 3506 1031 
Q 3506 472 3093 190 
Q 2681 -91 1863 -91 
Q 1516 -91 1145 -36 
Q 775 19 384 128 
L 384 978 
Q 719 816 1070 734 
Q 1422 653 1784 653 
Q 2113 653 2278 743 
Q 2444 834 2444 1013 
Q 2444 1163 2330 1236 
Q 2216 1309 1875 1350 
L 1678 1375 
Q 931 1469 631 1722 
Q 331 1975 331 2491 
Q 331 3047 712 3315 
Q 1094 3584 1881 3584 
Q 2191 3584 2531 3537 
Q 2872 3491 3272 3391 
z
" transform="scale(0.015625)"/>
      <path id="DejaVuSans-Bold-4a" d="M 588 4666 
L 1791 4666 
L 1791 453 
Q 1791 -419 1317 -850 
Q 844 -1281 -116 -1281 
L -359 -1281 
L -359 -372 
L -172 -372 
Q 203 -372 395 -162 
Q 588 47 588 453 
L 588 4666 
z
" transform="scale(0.015625)"/>
      <path id="DejaVuSans-Bold-52" d="M 2297 2597 
Q 2675 2597 2839 2737 
Q 3003 2878 3003 3200 
Q 3003 3519 2839 3656 
Q 2675 3794 2297 3794 
L 1791 3794 
L 1791 2597 
L 2297 2597 
z
M 1791 1766 
L 1791 0 
L 588 0 
L 588 4666 
L 2425 4666 
Q 3347 4666 3776 4356 
Q 4206 4047 4206 3378 
Q 4206 2916 3982 2619 
Q 3759 2322 3309 2181 
Q 3556 2125 3751 1926 
Q 3947 1728 4147 1325 
L 4800 0 
L 3519 0 
L 2950 1159 
Q 2778 1509 2601 1637 
Q 2425 1766 2131 1766 
L 1791 1766 
z
" transform="scale(0.015625)"/>
      <path id="DejaVuSans-Bold-47" d="M 4781 347 
Q 4331 128 3847 18 
Q 3363 -91 2847 -91 
Q 1681 -91 1000 561 
Q 319 1213 319 2328 
Q 319 3456 1012 4103 
Q 1706 4750 2913 4750 
Q 3378 4750 3804 4662 
Q 4231 4575 4609 4403 
L 4609 3438 
Q 4219 3659 3833 3768 
Q 3447 3878 3059 3878 
Q 2341 3878 1952 3476 
Q 1563 3075 1563 2328 
Q 1563 1588 1938 1184 
Q 2313 781 3003 781 
Q 3191 781 3352 804 
Q 3513 828 3641 878 
L 3641 1784 
L 2906 1784 
L 2906 2591 
L 4781 2591 
L 4781 347 
z
" transform="scale(0.015625)"/>
      <path id="DejaVuSans-Bold-43" d="M 4288 256 
Q 3956 84 3597 -3 
Q 3238 -91 2847 -91 
Q 1681 -91 1000 561 
Q 319 1213 319 2328 
Q 319 3447 1000 4098 
Q 1681 4750 2847 4750 
Q 3238 4750 3597 4662 
Q 3956 4575 4288 4403 
L 4288 3438 
Q 3953 3666 3628 3772 
Q 3303 3878 2944 3878 
Q 2300 3878 1931 3465 
Q 1563 3053 1563 2328 
Q 1563 1606 1931 1193 
Q 2300 781 2944 781 
Q 3303 781 3628 887 
Q 3953 994 4288 1222 
L 4288 256 
z
" transform="scale(0.015625)"/>
     </defs>
     <use xlink:href="#DejaVuSans-Bold-54"/>
     <use xlink:href="#DejaVuSans-Bold-63" transform="translate(54.962891 0)"/>
     <use xlink:href="#DejaVuSans-Bold-20" transform="translate(114.240234 0)"/>
     <use xlink:href="#DejaVuSans-Bold-63" transform="translate(149.054688 0)"/>
     <use xlink:href="#DejaVuSans-Bold-6f" transform="translate(208.332031 0)"/>
     <use xlink:href="#DejaVuSans-Bold-6d" transform="translate(277.033203 0)"/>
     <use xlink:href="#DejaVuSans-Bold-70" transform="translate(381.232422 0)"/>
     <use xlink:href="#DejaVuSans-Bold-61" transform="translate(452.814453 0)"/>
     <use xlink:href="#DejaVuSans-Bold-72" transform="translate(520.294922 0)"/>
     <use xlink:href="#DejaVuSans-Bold-69" transform="translate(569.611328 0)"/>
     <use xlink:href="#DejaVuSans-Bold-73" transform="translate(603.888672 0)"/>
     <use xlink:href="#DejaVuSans-Bold-6f" transform="translate(663.410156 0)"/>
     <use xlink:href="#DejaVuSans-Bold-6e" transform="translate(732.111328 0)"/>
     <use xlink:href="#DejaVuSans-Bold-20" transform="translate(803.302734 0)"/>
     <use xlink:href="#DejaVuSans-Bold-28" transform="translate(838.117188 0)"/>
     <use xlink:href="#DejaVuSans-Bold-4a" transform="translate(883.820312 0)"/>
     <use xlink:href="#DejaVuSans-Bold-52" transform="translate(921.027344 0)"/>
     <use xlink:href="#DejaVuSans-Bold-47" transform="translate(998.029297 0)"/>
     <use xlink:href="#DejaVuSans-Bold-43" transform="translate(1080.109375 0)"/>
     <use xlink:href="#DejaVuSans-Bold-29" transform="translate(1153.498047 0)"/>
    </g>
   </g>
  </g>
 </g>
 <defs>
  <clipPath id="padeeb3d5cb">
   <rect x="46.965625" y="24.798438" width="298.33" height="289.32"/>
  </clipPath>
 </defs>
</svg>
